<mxfile host="app.diagrams.net" modified="2022-12-29T19:23:26.591Z" agent="5.0 (Windows NT 10.0; Win64; x64) AppleWebKit/537.36 (KHTML, like Gecko) Chrome/108.0.0.0 Safari/537.36" etag="gqZX5jVir5QiuqoTb03V" version="20.5.3" type="github">
  <diagram id="_uiRzG9NtpbORsnQe5vZ" name="第 1 页">
    <mxGraphModel dx="2062" dy="1122" grid="0" gridSize="10" guides="1" tooltips="1" connect="1" arrows="1" fold="1" page="1" pageScale="1" pageWidth="827" pageHeight="1169" math="0" shadow="0">
      <root>
        <mxCell id="0" />
        <mxCell id="1" parent="0" />
      </root>
    </mxGraphModel>
  </diagram>
</mxfile>
